<mxfile host="app.diagrams.net" modified="2024-03-30T22:42:13.556Z" agent="Mozilla/5.0 (Windows NT 10.0; Win64; x64) AppleWebKit/537.36 (KHTML, like Gecko) Chrome/123.0.0.0 Safari/537.36 Edg/123.0.0.0" etag="-nXHsQzcsyCVRn2yHE--" version="24.2.1" type="device">
  <diagram name="Página-1" id="mWvNeSxwb7MnBw_ohSov">
    <mxGraphModel dx="1426" dy="793" grid="1" gridSize="10" guides="1" tooltips="1" connect="1" arrows="1" fold="1" page="1" pageScale="1" pageWidth="1920" pageHeight="1200" math="0" shadow="0">
      <root>
        <mxCell id="0" />
        <mxCell id="1" parent="0" />
        <mxCell id="2q3pOAHnAnjCmCMt6ZhN-2" value="" style="rounded=0;whiteSpace=wrap;html=1;" vertex="1" parent="1">
          <mxGeometry x="230" y="70" width="1150" height="690" as="geometry" />
        </mxCell>
        <mxCell id="2q3pOAHnAnjCmCMt6ZhN-9" value="Utilização do site" style="text;html=1;align=center;verticalAlign=middle;whiteSpace=wrap;rounded=0;strokeWidth=2;fontSize=20;" vertex="1" parent="1">
          <mxGeometry x="230" y="60" width="250" height="90" as="geometry" />
        </mxCell>
        <mxCell id="2q3pOAHnAnjCmCMt6ZhN-14" style="edgeStyle=orthogonalEdgeStyle;rounded=0;orthogonalLoop=1;jettySize=auto;html=1;" edge="1" parent="1" source="2q3pOAHnAnjCmCMt6ZhN-10" target="2q3pOAHnAnjCmCMt6ZhN-13">
          <mxGeometry relative="1" as="geometry" />
        </mxCell>
        <mxCell id="2q3pOAHnAnjCmCMt6ZhN-40" style="rounded=0;orthogonalLoop=1;jettySize=auto;html=1;" edge="1" parent="1" source="2q3pOAHnAnjCmCMt6ZhN-10" target="2q3pOAHnAnjCmCMt6ZhN-37">
          <mxGeometry relative="1" as="geometry" />
        </mxCell>
        <mxCell id="2q3pOAHnAnjCmCMt6ZhN-41" style="rounded=0;orthogonalLoop=1;jettySize=auto;html=1;entryX=0;entryY=0.75;entryDx=0;entryDy=0;" edge="1" parent="1" source="2q3pOAHnAnjCmCMt6ZhN-10" target="2q3pOAHnAnjCmCMt6ZhN-38">
          <mxGeometry relative="1" as="geometry" />
        </mxCell>
        <mxCell id="2q3pOAHnAnjCmCMt6ZhN-42" style="rounded=0;orthogonalLoop=1;jettySize=auto;html=1;entryX=0;entryY=0.75;entryDx=0;entryDy=0;" edge="1" parent="1" source="2q3pOAHnAnjCmCMt6ZhN-10" target="2q3pOAHnAnjCmCMt6ZhN-39">
          <mxGeometry relative="1" as="geometry" />
        </mxCell>
        <mxCell id="2q3pOAHnAnjCmCMt6ZhN-10" value="" style="ellipse;whiteSpace=wrap;html=1;aspect=fixed;fillColor=#f8cecc;strokeColor=#FF0000;gradientColor=none;" vertex="1" parent="1">
          <mxGeometry x="350" y="150" width="30" height="30" as="geometry" />
        </mxCell>
        <mxCell id="2q3pOAHnAnjCmCMt6ZhN-17" style="edgeStyle=orthogonalEdgeStyle;rounded=0;orthogonalLoop=1;jettySize=auto;html=1;entryX=0;entryY=0.5;entryDx=0;entryDy=0;" edge="1" parent="1" source="2q3pOAHnAnjCmCMt6ZhN-20" target="2q3pOAHnAnjCmCMt6ZhN-16">
          <mxGeometry relative="1" as="geometry" />
        </mxCell>
        <mxCell id="2q3pOAHnAnjCmCMt6ZhN-27" style="edgeStyle=orthogonalEdgeStyle;rounded=0;orthogonalLoop=1;jettySize=auto;html=1;" edge="1" parent="1" source="2q3pOAHnAnjCmCMt6ZhN-13" target="2q3pOAHnAnjCmCMt6ZhN-20">
          <mxGeometry relative="1" as="geometry" />
        </mxCell>
        <mxCell id="2q3pOAHnAnjCmCMt6ZhN-13" value="Escolher cor da pulseira" style="rounded=1;whiteSpace=wrap;html=1;shadow=0;glass=0;" vertex="1" parent="1">
          <mxGeometry x="305" y="300" width="120" height="60" as="geometry" />
        </mxCell>
        <mxCell id="2q3pOAHnAnjCmCMt6ZhN-19" style="edgeStyle=orthogonalEdgeStyle;rounded=0;orthogonalLoop=1;jettySize=auto;html=1;" edge="1" parent="1" source="2q3pOAHnAnjCmCMt6ZhN-29" target="2q3pOAHnAnjCmCMt6ZhN-18">
          <mxGeometry relative="1" as="geometry" />
        </mxCell>
        <mxCell id="2q3pOAHnAnjCmCMt6ZhN-34" style="rounded=0;orthogonalLoop=1;jettySize=auto;html=1;entryX=0;entryY=0.5;entryDx=0;entryDy=0;" edge="1" parent="1" source="2q3pOAHnAnjCmCMt6ZhN-16" target="2q3pOAHnAnjCmCMt6ZhN-32">
          <mxGeometry relative="1" as="geometry" />
        </mxCell>
        <mxCell id="2q3pOAHnAnjCmCMt6ZhN-16" value="Escolher material da pulseira" style="rounded=1;whiteSpace=wrap;html=1;" vertex="1" parent="1">
          <mxGeometry x="630" y="300" width="120" height="60" as="geometry" />
        </mxCell>
        <mxCell id="2q3pOAHnAnjCmCMt6ZhN-56" style="edgeStyle=orthogonalEdgeStyle;rounded=0;orthogonalLoop=1;jettySize=auto;html=1;" edge="1" parent="1" source="2q3pOAHnAnjCmCMt6ZhN-18" target="2q3pOAHnAnjCmCMt6ZhN-55">
          <mxGeometry relative="1" as="geometry" />
        </mxCell>
        <mxCell id="2q3pOAHnAnjCmCMt6ZhN-18" value="Escrever mensagem personalizada na pulseira" style="rounded=1;whiteSpace=wrap;html=1;" vertex="1" parent="1">
          <mxGeometry x="950" y="300" width="120" height="60" as="geometry" />
        </mxCell>
        <mxCell id="2q3pOAHnAnjCmCMt6ZhN-28" value="" style="edgeStyle=orthogonalEdgeStyle;rounded=0;orthogonalLoop=1;jettySize=auto;html=1;entryX=0;entryY=0.5;entryDx=0;entryDy=0;" edge="1" parent="1" source="2q3pOAHnAnjCmCMt6ZhN-13" target="2q3pOAHnAnjCmCMt6ZhN-20">
          <mxGeometry relative="1" as="geometry">
            <mxPoint x="425" y="330" as="sourcePoint" />
            <mxPoint x="630" y="330" as="targetPoint" />
          </mxGeometry>
        </mxCell>
        <mxCell id="2q3pOAHnAnjCmCMt6ZhN-20" value="" style="rhombus;whiteSpace=wrap;html=1;" vertex="1" parent="1">
          <mxGeometry x="500" y="310" width="50" height="40" as="geometry" />
        </mxCell>
        <mxCell id="2q3pOAHnAnjCmCMt6ZhN-30" value="" style="edgeStyle=orthogonalEdgeStyle;rounded=0;orthogonalLoop=1;jettySize=auto;html=1;" edge="1" parent="1" source="2q3pOAHnAnjCmCMt6ZhN-16" target="2q3pOAHnAnjCmCMt6ZhN-29">
          <mxGeometry relative="1" as="geometry">
            <mxPoint x="750" y="330" as="sourcePoint" />
            <mxPoint x="960" y="330" as="targetPoint" />
          </mxGeometry>
        </mxCell>
        <mxCell id="2q3pOAHnAnjCmCMt6ZhN-29" value="" style="rhombus;whiteSpace=wrap;html=1;" vertex="1" parent="1">
          <mxGeometry x="830" y="310" width="50" height="40" as="geometry" />
        </mxCell>
        <mxCell id="2q3pOAHnAnjCmCMt6ZhN-36" style="edgeStyle=orthogonalEdgeStyle;rounded=0;orthogonalLoop=1;jettySize=auto;html=1;" edge="1" parent="1" source="2q3pOAHnAnjCmCMt6ZhN-32" target="2q3pOAHnAnjCmCMt6ZhN-35">
          <mxGeometry relative="1" as="geometry" />
        </mxCell>
        <mxCell id="2q3pOAHnAnjCmCMt6ZhN-32" value="Confirmar&lt;div&gt;pedido&amp;nbsp;&lt;/div&gt;" style="rounded=1;whiteSpace=wrap;html=1;" vertex="1" parent="1">
          <mxGeometry x="950" y="560" width="120" height="60" as="geometry" />
        </mxCell>
        <mxCell id="2q3pOAHnAnjCmCMt6ZhN-35" value="" style="ellipse;whiteSpace=wrap;html=1;aspect=fixed;fillColor=#f8cecc;strokeColor=#FF0000;gradientColor=none;" vertex="1" parent="1">
          <mxGeometry x="995" y="690" width="30" height="30" as="geometry" />
        </mxCell>
        <mxCell id="2q3pOAHnAnjCmCMt6ZhN-48" style="edgeStyle=orthogonalEdgeStyle;rounded=0;orthogonalLoop=1;jettySize=auto;html=1;" edge="1" parent="1" source="2q3pOAHnAnjCmCMt6ZhN-37" target="2q3pOAHnAnjCmCMt6ZhN-43">
          <mxGeometry relative="1" as="geometry" />
        </mxCell>
        <mxCell id="2q3pOAHnAnjCmCMt6ZhN-37" value="Pagina de informações sobre as pulseiras" style="rounded=1;whiteSpace=wrap;html=1;" vertex="1" parent="1">
          <mxGeometry x="500" y="130" width="120" height="60" as="geometry" />
        </mxCell>
        <mxCell id="2q3pOAHnAnjCmCMt6ZhN-49" style="edgeStyle=orthogonalEdgeStyle;rounded=0;orthogonalLoop=1;jettySize=auto;html=1;" edge="1" parent="1" source="2q3pOAHnAnjCmCMt6ZhN-38" target="2q3pOAHnAnjCmCMt6ZhN-46">
          <mxGeometry relative="1" as="geometry" />
        </mxCell>
        <mxCell id="2q3pOAHnAnjCmCMt6ZhN-38" value="&lt;br&gt;&lt;span style=&quot;color: rgb(0, 0, 0); font-family: Helvetica; font-size: 12px; font-style: normal; font-variant-ligatures: normal; font-variant-caps: normal; font-weight: 400; letter-spacing: normal; orphans: 2; text-align: center; text-indent: 0px; text-transform: none; widows: 2; word-spacing: 0px; -webkit-text-stroke-width: 0px; white-space: normal; background-color: rgb(251, 251, 251); text-decoration-thickness: initial; text-decoration-style: initial; text-decoration-color: initial; display: inline !important; float: none;&quot;&gt;Pagina de informações sobre&lt;/span&gt;&lt;br&gt;o site" style="rounded=1;whiteSpace=wrap;html=1;" vertex="1" parent="1">
          <mxGeometry x="630" y="190" width="120" height="60" as="geometry" />
        </mxCell>
        <mxCell id="2q3pOAHnAnjCmCMt6ZhN-50" style="edgeStyle=orthogonalEdgeStyle;rounded=0;orthogonalLoop=1;jettySize=auto;html=1;" edge="1" parent="1" source="2q3pOAHnAnjCmCMt6ZhN-39" target="2q3pOAHnAnjCmCMt6ZhN-45">
          <mxGeometry relative="1" as="geometry" />
        </mxCell>
        <mxCell id="2q3pOAHnAnjCmCMt6ZhN-39" value="Pagina de contato" style="rounded=1;whiteSpace=wrap;html=1;" vertex="1" parent="1">
          <mxGeometry x="500" y="250" width="120" height="60" as="geometry" />
        </mxCell>
        <mxCell id="2q3pOAHnAnjCmCMt6ZhN-43" value="" style="ellipse;shape=doubleEllipse;whiteSpace=wrap;html=1;aspect=fixed;strokeColor=#36393d;fillColor=#ffcccc;" vertex="1" parent="1">
          <mxGeometry x="790" y="145" width="30" height="30" as="geometry" />
        </mxCell>
        <mxCell id="2q3pOAHnAnjCmCMt6ZhN-44" value="" style="ellipse;shape=doubleEllipse;whiteSpace=wrap;html=1;aspect=fixed;strokeColor=#36393d;fillColor=#ffcccc;" vertex="1" parent="1">
          <mxGeometry x="995" y="690" width="30" height="30" as="geometry" />
        </mxCell>
        <mxCell id="2q3pOAHnAnjCmCMt6ZhN-45" value="" style="ellipse;shape=doubleEllipse;whiteSpace=wrap;html=1;aspect=fixed;strokeColor=#36393d;fillColor=#ffcccc;" vertex="1" parent="1">
          <mxGeometry x="790" y="265" width="30" height="30" as="geometry" />
        </mxCell>
        <mxCell id="2q3pOAHnAnjCmCMt6ZhN-46" value="" style="ellipse;shape=doubleEllipse;whiteSpace=wrap;html=1;aspect=fixed;strokeColor=#36393d;fillColor=#ffcccc;" vertex="1" parent="1">
          <mxGeometry x="800" y="205" width="30" height="30" as="geometry" />
        </mxCell>
        <mxCell id="2q3pOAHnAnjCmCMt6ZhN-58" style="edgeStyle=orthogonalEdgeStyle;rounded=0;orthogonalLoop=1;jettySize=auto;html=1;" edge="1" parent="1" source="2q3pOAHnAnjCmCMt6ZhN-55" target="2q3pOAHnAnjCmCMt6ZhN-32">
          <mxGeometry relative="1" as="geometry" />
        </mxCell>
        <mxCell id="2q3pOAHnAnjCmCMt6ZhN-55" value="" style="rhombus;whiteSpace=wrap;html=1;" vertex="1" parent="1">
          <mxGeometry x="985" y="420" width="50" height="40" as="geometry" />
        </mxCell>
      </root>
    </mxGraphModel>
  </diagram>
</mxfile>
